<mxfile host="app.diagrams.net" modified="2024-05-19T22:21:27.773Z" agent="Mozilla/5.0 (Windows NT 10.0; Win64; x64) AppleWebKit/537.36 (KHTML, like Gecko) Chrome/123.0.0.0 Safari/537.36 OPR/109.0.0.0 (Edition Yx GX)" etag="BPVymCrCuSw2sOFtvVB5" version="24.4.4" type="device">
  <diagram name="Страница — 1" id="A1gEv1TV-6-d1AEYhEsC">
    <mxGraphModel dx="2333" dy="1139" grid="1" gridSize="10" guides="1" tooltips="1" connect="1" arrows="1" fold="1" page="1" pageScale="1" pageWidth="827" pageHeight="1169" math="0" shadow="0">
      <root>
        <mxCell id="0" />
        <mxCell id="1" parent="0" />
        <mxCell id="R_fdHNc36X56iE5-27ie-2" value="Начало" style="ellipse;whiteSpace=wrap;html=1;" vertex="1" parent="1">
          <mxGeometry x="354" y="20" width="120" height="80" as="geometry" />
        </mxCell>
        <mxCell id="R_fdHNc36X56iE5-27ie-7" value="n=len(arr)&lt;div&gt;lis = [1]*n&lt;/div&gt;" style="rounded=0;whiteSpace=wrap;html=1;" vertex="1" parent="1">
          <mxGeometry x="600" y="160" width="190" height="60" as="geometry" />
        </mxCell>
        <mxCell id="R_fdHNc36X56iE5-27ie-8" value="for i in range(1,n)" style="rhombus;whiteSpace=wrap;html=1;" vertex="1" parent="1">
          <mxGeometry x="615" y="270" width="160" height="160" as="geometry" />
        </mxCell>
        <mxCell id="R_fdHNc36X56iE5-27ie-40" value="for j in range&lt;div&gt;&lt;br/&gt;&lt;/div&gt;" style="rhombus;whiteSpace=wrap;html=1;" vertex="1" parent="1">
          <mxGeometry x="760" y="440" width="156" height="140" as="geometry" />
        </mxCell>
        <mxCell id="R_fdHNc36X56iE5-27ie-44" value="" style="endArrow=classic;html=1;rounded=0;exitX=1;exitY=0.5;exitDx=0;exitDy=0;" edge="1" parent="1" source="R_fdHNc36X56iE5-27ie-67">
          <mxGeometry width="50" height="50" relative="1" as="geometry">
            <mxPoint x="494" y="190" as="sourcePoint" />
            <mxPoint x="600" y="190" as="targetPoint" />
          </mxGeometry>
        </mxCell>
        <mxCell id="R_fdHNc36X56iE5-27ie-45" value="true" style="edgeLabel;html=1;align=center;verticalAlign=middle;resizable=0;points=[];" vertex="1" connectable="0" parent="R_fdHNc36X56iE5-27ie-44">
          <mxGeometry x="-0.3019" y="2" relative="1" as="geometry">
            <mxPoint y="-18" as="offset" />
          </mxGeometry>
        </mxCell>
        <mxCell id="R_fdHNc36X56iE5-27ie-46" value="" style="endArrow=classic;html=1;rounded=0;exitX=0;exitY=0.5;exitDx=0;exitDy=0;" edge="1" parent="1" source="R_fdHNc36X56iE5-27ie-67">
          <mxGeometry width="50" height="50" relative="1" as="geometry">
            <mxPoint x="334" y="190" as="sourcePoint" />
            <mxPoint x="240" y="190" as="targetPoint" />
          </mxGeometry>
        </mxCell>
        <mxCell id="R_fdHNc36X56iE5-27ie-49" value="false" style="edgeLabel;html=1;align=center;verticalAlign=middle;resizable=0;points=[];" vertex="1" connectable="0" parent="R_fdHNc36X56iE5-27ie-46">
          <mxGeometry x="-0.2766" y="3" relative="1" as="geometry">
            <mxPoint y="-23" as="offset" />
          </mxGeometry>
        </mxCell>
        <mxCell id="R_fdHNc36X56iE5-27ie-47" value="" style="endArrow=classic;html=1;rounded=0;exitX=0.5;exitY=1;exitDx=0;exitDy=0;" edge="1" parent="1" source="R_fdHNc36X56iE5-27ie-2" target="R_fdHNc36X56iE5-27ie-67">
          <mxGeometry width="50" height="50" relative="1" as="geometry">
            <mxPoint x="650" y="240" as="sourcePoint" />
            <mxPoint x="414" y="120" as="targetPoint" />
          </mxGeometry>
        </mxCell>
        <mxCell id="R_fdHNc36X56iE5-27ie-50" value="" style="endArrow=classic;html=1;rounded=0;exitX=0.5;exitY=1;exitDx=0;exitDy=0;entryX=0.5;entryY=0;entryDx=0;entryDy=0;" edge="1" parent="1" source="R_fdHNc36X56iE5-27ie-7" target="R_fdHNc36X56iE5-27ie-8">
          <mxGeometry width="50" height="50" relative="1" as="geometry">
            <mxPoint x="650" y="360" as="sourcePoint" />
            <mxPoint x="700" y="310" as="targetPoint" />
          </mxGeometry>
        </mxCell>
        <mxCell id="R_fdHNc36X56iE5-27ie-52" value="" style="endArrow=none;html=1;rounded=0;exitX=1;exitY=0.5;exitDx=0;exitDy=0;" edge="1" parent="1" source="R_fdHNc36X56iE5-27ie-8">
          <mxGeometry width="50" height="50" relative="1" as="geometry">
            <mxPoint x="650" y="360" as="sourcePoint" />
            <mxPoint x="840" y="350" as="targetPoint" />
          </mxGeometry>
        </mxCell>
        <mxCell id="R_fdHNc36X56iE5-27ie-55" value="true" style="edgeLabel;html=1;align=center;verticalAlign=middle;resizable=0;points=[];" vertex="1" connectable="0" parent="R_fdHNc36X56iE5-27ie-52">
          <mxGeometry x="-0.0769" y="-3" relative="1" as="geometry">
            <mxPoint y="-13" as="offset" />
          </mxGeometry>
        </mxCell>
        <mxCell id="R_fdHNc36X56iE5-27ie-54" value="" style="endArrow=classic;html=1;rounded=0;entryX=0.5;entryY=0;entryDx=0;entryDy=0;" edge="1" parent="1" target="R_fdHNc36X56iE5-27ie-40">
          <mxGeometry width="50" height="50" relative="1" as="geometry">
            <mxPoint x="840" y="350" as="sourcePoint" />
            <mxPoint x="700" y="310" as="targetPoint" />
          </mxGeometry>
        </mxCell>
        <mxCell id="R_fdHNc36X56iE5-27ie-67" value="if not arr" style="shape=parallelogram;perimeter=parallelogramPerimeter;whiteSpace=wrap;html=1;fixedSize=1;" vertex="1" parent="1">
          <mxGeometry x="354" y="160" width="120" height="60" as="geometry" />
        </mxCell>
        <mxCell id="R_fdHNc36X56iE5-27ie-71" value="" style="endArrow=classic;html=1;rounded=0;exitX=0;exitY=0.5;exitDx=0;exitDy=0;" edge="1" parent="1" source="R_fdHNc36X56iE5-27ie-40">
          <mxGeometry width="50" height="50" relative="1" as="geometry">
            <mxPoint x="650" y="460" as="sourcePoint" />
            <mxPoint x="650" y="510" as="targetPoint" />
          </mxGeometry>
        </mxCell>
        <mxCell id="R_fdHNc36X56iE5-27ie-72" value="false" style="edgeLabel;html=1;align=center;verticalAlign=middle;resizable=0;points=[];" vertex="1" connectable="0" parent="R_fdHNc36X56iE5-27ie-71">
          <mxGeometry x="-0.3091" y="5" relative="1" as="geometry">
            <mxPoint y="-15" as="offset" />
          </mxGeometry>
        </mxCell>
        <mxCell id="R_fdHNc36X56iE5-27ie-74" value="max_lenght = max(lis)&lt;div&gt;max_index = lis.index(&lt;span style=&quot;background-color: initial;&quot;&gt;max_lenght&lt;/span&gt;&lt;span style=&quot;background-color: initial;&quot;&gt;&amp;nbsp;&lt;/span&gt;&lt;span style=&quot;background-color: initial;&quot;&gt;)&lt;/span&gt;&lt;/div&gt;&lt;div&gt;&lt;span style=&quot;background-color: initial;&quot;&gt;result = [arr[&lt;/span&gt;&lt;span style=&quot;background-color: initial;&quot;&gt;max_index&lt;/span&gt;&lt;span style=&quot;background-color: initial;&quot;&gt;]]&lt;/span&gt;&lt;/div&gt;&lt;div&gt;&lt;span style=&quot;background-color: initial;&quot;&gt;currect_lenght =&amp;nbsp;&lt;/span&gt;&lt;span style=&quot;background-color: initial;&quot;&gt;max_lenght&lt;/span&gt;&lt;span style=&quot;background-color: initial;&quot;&gt;&amp;nbsp;&lt;/span&gt;&lt;/div&gt;&lt;div&gt;&lt;span style=&quot;background-color: initial;&quot;&gt;&lt;br&gt;&lt;/span&gt;&lt;/div&gt;" style="rounded=0;whiteSpace=wrap;html=1;" vertex="1" parent="1">
          <mxGeometry x="440" y="480" width="210" height="100" as="geometry" />
        </mxCell>
        <mxCell id="R_fdHNc36X56iE5-27ie-76" value="if i&amp;gt;j" style="shape=parallelogram;perimeter=parallelogramPerimeter;whiteSpace=wrap;html=1;fixedSize=1;" vertex="1" parent="1">
          <mxGeometry x="1020" y="490" width="120" height="60" as="geometry" />
        </mxCell>
        <mxCell id="R_fdHNc36X56iE5-27ie-77" value="" style="endArrow=classic;html=1;rounded=0;exitX=1;exitY=0.5;exitDx=0;exitDy=0;entryX=0;entryY=0.25;entryDx=0;entryDy=0;" edge="1" parent="1" source="R_fdHNc36X56iE5-27ie-40" target="R_fdHNc36X56iE5-27ie-76">
          <mxGeometry width="50" height="50" relative="1" as="geometry">
            <mxPoint x="650" y="460" as="sourcePoint" />
            <mxPoint x="700" y="410" as="targetPoint" />
          </mxGeometry>
        </mxCell>
        <mxCell id="R_fdHNc36X56iE5-27ie-78" value="true" style="edgeLabel;html=1;align=center;verticalAlign=middle;resizable=0;points=[];" vertex="1" connectable="0" parent="R_fdHNc36X56iE5-27ie-77">
          <mxGeometry x="-0.2358" y="2" relative="1" as="geometry">
            <mxPoint x="9" y="-17" as="offset" />
          </mxGeometry>
        </mxCell>
        <mxCell id="R_fdHNc36X56iE5-27ie-79" value="list[i]=list[j]+1" style="rounded=0;whiteSpace=wrap;html=1;" vertex="1" parent="1">
          <mxGeometry x="1230" y="520" width="120" height="60" as="geometry" />
        </mxCell>
        <mxCell id="R_fdHNc36X56iE5-27ie-80" value="" style="endArrow=classic;html=1;rounded=0;entryX=0.433;entryY=-0.083;entryDx=0;entryDy=0;entryPerimeter=0;" edge="1" parent="1" source="R_fdHNc36X56iE5-27ie-76" target="R_fdHNc36X56iE5-27ie-79">
          <mxGeometry width="50" height="50" relative="1" as="geometry">
            <mxPoint x="650" y="560" as="sourcePoint" />
            <mxPoint x="700" y="510" as="targetPoint" />
            <Array as="points">
              <mxPoint x="1080" y="440" />
              <mxPoint x="1280" y="440" />
            </Array>
          </mxGeometry>
        </mxCell>
        <mxCell id="R_fdHNc36X56iE5-27ie-81" value="true" style="edgeLabel;html=1;align=center;verticalAlign=middle;resizable=0;points=[];" vertex="1" connectable="0" parent="R_fdHNc36X56iE5-27ie-80">
          <mxGeometry x="-0.3" y="2" relative="1" as="geometry">
            <mxPoint x="8" y="9" as="offset" />
          </mxGeometry>
        </mxCell>
        <mxCell id="R_fdHNc36X56iE5-27ie-82" value="" style="endArrow=classic;html=1;rounded=0;exitX=0.5;exitY=1;exitDx=0;exitDy=0;entryX=0.5;entryY=1;entryDx=0;entryDy=0;" edge="1" parent="1" source="R_fdHNc36X56iE5-27ie-76" target="R_fdHNc36X56iE5-27ie-40">
          <mxGeometry width="50" height="50" relative="1" as="geometry">
            <mxPoint x="650" y="560" as="sourcePoint" />
            <mxPoint x="700" y="510" as="targetPoint" />
            <Array as="points">
              <mxPoint x="1080" y="640" />
              <mxPoint x="840" y="640" />
            </Array>
          </mxGeometry>
        </mxCell>
        <mxCell id="R_fdHNc36X56iE5-27ie-83" value="false" style="edgeLabel;html=1;align=center;verticalAlign=middle;resizable=0;points=[];" vertex="1" connectable="0" parent="R_fdHNc36X56iE5-27ie-82">
          <mxGeometry x="-0.0514" y="-3" relative="1" as="geometry">
            <mxPoint x="-15" y="-17" as="offset" />
          </mxGeometry>
        </mxCell>
        <mxCell id="R_fdHNc36X56iE5-27ie-85" value="" style="endArrow=classic;html=1;rounded=0;exitX=0.5;exitY=1;exitDx=0;exitDy=0;" edge="1" parent="1" source="R_fdHNc36X56iE5-27ie-79">
          <mxGeometry width="50" height="50" relative="1" as="geometry">
            <mxPoint x="650" y="560" as="sourcePoint" />
            <mxPoint x="840" y="640" as="targetPoint" />
            <Array as="points">
              <mxPoint x="1290" y="720" />
              <mxPoint x="840" y="720" />
            </Array>
          </mxGeometry>
        </mxCell>
        <mxCell id="R_fdHNc36X56iE5-27ie-86" value="" style="endArrow=classic;html=1;rounded=0;exitX=0.056;exitY=0.563;exitDx=0;exitDy=0;entryX=0.25;entryY=0;entryDx=0;entryDy=0;exitPerimeter=0;" edge="1" parent="1" source="R_fdHNc36X56iE5-27ie-8" target="R_fdHNc36X56iE5-27ie-74">
          <mxGeometry width="50" height="50" relative="1" as="geometry">
            <mxPoint x="650" y="460" as="sourcePoint" />
            <mxPoint x="700" y="410" as="targetPoint" />
            <Array as="points">
              <mxPoint x="493" y="360" />
            </Array>
          </mxGeometry>
        </mxCell>
        <mxCell id="R_fdHNc36X56iE5-27ie-87" value="false" style="edgeLabel;html=1;align=center;verticalAlign=middle;resizable=0;points=[];" vertex="1" connectable="0" parent="R_fdHNc36X56iE5-27ie-86">
          <mxGeometry x="-0.5939" y="2" relative="1" as="geometry">
            <mxPoint y="-12" as="offset" />
          </mxGeometry>
        </mxCell>
        <mxCell id="R_fdHNc36X56iE5-27ie-88" value="for i range(max_index -1, -1, -1)" style="rhombus;whiteSpace=wrap;html=1;" vertex="1" parent="1">
          <mxGeometry x="465" y="630" width="150" height="150" as="geometry" />
        </mxCell>
        <mxCell id="R_fdHNc36X56iE5-27ie-89" value="" style="endArrow=classic;html=1;rounded=0;entryX=0.5;entryY=0;entryDx=0;entryDy=0;" edge="1" parent="1" target="R_fdHNc36X56iE5-27ie-88">
          <mxGeometry width="50" height="50" relative="1" as="geometry">
            <mxPoint x="540" y="580" as="sourcePoint" />
            <mxPoint x="500" y="500" as="targetPoint" />
          </mxGeometry>
        </mxCell>
        <mxCell id="R_fdHNc36X56iE5-27ie-90" value="if arr[i]&amp;lt;arr[max_index]&lt;div&gt;and&lt;/div&gt;&lt;div&gt;lis[i]==current_length -1&lt;/div&gt;" style="shape=parallelogram;perimeter=parallelogramPerimeter;whiteSpace=wrap;html=1;fixedSize=1;" vertex="1" parent="1">
          <mxGeometry x="670" y="800" width="160" height="100" as="geometry" />
        </mxCell>
        <mxCell id="R_fdHNc36X56iE5-27ie-91" value="" style="endArrow=classic;html=1;rounded=0;exitX=1;exitY=0.5;exitDx=0;exitDy=0;entryX=0.583;entryY=0;entryDx=0;entryDy=0;entryPerimeter=0;" edge="1" parent="1" source="R_fdHNc36X56iE5-27ie-88" target="R_fdHNc36X56iE5-27ie-90">
          <mxGeometry width="50" height="50" relative="1" as="geometry">
            <mxPoint x="600" y="750" as="sourcePoint" />
            <mxPoint x="750" y="760" as="targetPoint" />
            <Array as="points">
              <mxPoint x="760" y="705" />
            </Array>
          </mxGeometry>
        </mxCell>
        <mxCell id="R_fdHNc36X56iE5-27ie-92" value="true" style="edgeLabel;html=1;align=center;verticalAlign=middle;resizable=0;points=[];" vertex="1" connectable="0" parent="R_fdHNc36X56iE5-27ie-91">
          <mxGeometry x="-0.4783" relative="1" as="geometry">
            <mxPoint x="5" y="-15" as="offset" />
          </mxGeometry>
        </mxCell>
        <mxCell id="R_fdHNc36X56iE5-27ie-94" value="" style="endArrow=classic;html=1;rounded=0;exitX=0.5;exitY=1;exitDx=0;exitDy=0;" edge="1" parent="1" source="R_fdHNc36X56iE5-27ie-90">
          <mxGeometry width="50" height="50" relative="1" as="geometry">
            <mxPoint x="600" y="850" as="sourcePoint" />
            <mxPoint x="750" y="960" as="targetPoint" />
          </mxGeometry>
        </mxCell>
        <mxCell id="R_fdHNc36X56iE5-27ie-95" value="result.insert(0, arr[i])&lt;div&gt;currect_length - = 1&lt;/div&gt;" style="rounded=0;whiteSpace=wrap;html=1;" vertex="1" parent="1">
          <mxGeometry x="700" y="960" width="120" height="60" as="geometry" />
        </mxCell>
        <mxCell id="R_fdHNc36X56iE5-27ie-96" value="" style="endArrow=classic;html=1;rounded=0;exitX=0.008;exitY=0.633;exitDx=0;exitDy=0;entryX=0.5;entryY=1;entryDx=0;entryDy=0;exitPerimeter=0;" edge="1" parent="1" source="R_fdHNc36X56iE5-27ie-95" target="R_fdHNc36X56iE5-27ie-88">
          <mxGeometry width="50" height="50" relative="1" as="geometry">
            <mxPoint x="600" y="850" as="sourcePoint" />
            <mxPoint x="650" y="800" as="targetPoint" />
            <Array as="points">
              <mxPoint x="540" y="1000" />
            </Array>
          </mxGeometry>
        </mxCell>
        <mxCell id="R_fdHNc36X56iE5-27ie-97" value="" style="endArrow=classic;html=1;rounded=0;exitX=0;exitY=0.5;exitDx=0;exitDy=0;" edge="1" parent="1" source="R_fdHNc36X56iE5-27ie-88">
          <mxGeometry width="50" height="50" relative="1" as="geometry">
            <mxPoint x="480" y="750" as="sourcePoint" />
            <mxPoint x="440" y="705" as="targetPoint" />
          </mxGeometry>
        </mxCell>
        <mxCell id="R_fdHNc36X56iE5-27ie-99" value="вывод result" style="rounded=0;whiteSpace=wrap;html=1;" vertex="1" parent="1">
          <mxGeometry x="320" y="675" width="120" height="60" as="geometry" />
        </mxCell>
        <mxCell id="R_fdHNc36X56iE5-27ie-100" value="" style="endArrow=classic;html=1;rounded=0;exitX=0.5;exitY=1;exitDx=0;exitDy=0;" edge="1" parent="1" source="R_fdHNc36X56iE5-27ie-99">
          <mxGeometry width="50" height="50" relative="1" as="geometry">
            <mxPoint x="480" y="750" as="sourcePoint" />
            <mxPoint x="380" y="840" as="targetPoint" />
          </mxGeometry>
        </mxCell>
        <mxCell id="R_fdHNc36X56iE5-27ie-101" value="конец" style="ellipse;whiteSpace=wrap;html=1;" vertex="1" parent="1">
          <mxGeometry x="320" y="840" width="120" height="80" as="geometry" />
        </mxCell>
        <mxCell id="R_fdHNc36X56iE5-27ie-102" value="вывод []" style="rounded=0;whiteSpace=wrap;html=1;" vertex="1" parent="1">
          <mxGeometry x="120" y="160" width="120" height="60" as="geometry" />
        </mxCell>
        <mxCell id="R_fdHNc36X56iE5-27ie-103" value="" style="endArrow=classic;html=1;rounded=0;exitX=0.5;exitY=1;exitDx=0;exitDy=0;" edge="1" parent="1" source="R_fdHNc36X56iE5-27ie-102">
          <mxGeometry width="50" height="50" relative="1" as="geometry">
            <mxPoint x="990" y="610" as="sourcePoint" />
            <mxPoint x="180" y="320" as="targetPoint" />
          </mxGeometry>
        </mxCell>
        <mxCell id="R_fdHNc36X56iE5-27ie-104" value="конец" style="ellipse;whiteSpace=wrap;html=1;" vertex="1" parent="1">
          <mxGeometry x="120" y="320" width="120" height="80" as="geometry" />
        </mxCell>
      </root>
    </mxGraphModel>
  </diagram>
</mxfile>
